<svg xmlns="http://www.w3.org/2000/svg"
     width="256"
     height="256"
     viewBox="0 0 4 4"
     fill="gray">

    <defs>
        <g id="def-body">
            <circle cx="0.5" cy="0.5" r="0.5" fill="#008751"/>
            <circle cx="0.5" cy="0.5" r="0.4" fill="#00e436"/>
            <g id="yellow-dots">
                <circle cx="0.45" cy="0.35" r="0.05" fill="#ffec27"/>
                <circle cx="0.35" cy="0.45" r="0.05" fill="#ffec27"/>
                <circle cx="0.35" cy="0.65" r="0.05" fill="#ffec27"/>
                <circle cx="0.45" cy="0.55" r="0.05" fill="#ffec27"/>
                <circle cx="0.55" cy="0.45" r="0.05" fill="#ffec27"/>
                <circle cx="0.55" cy="0.65" r="0.05" fill="#ffec27"/>
                <circle cx="0.65" cy="0.35" r="0.05" fill="#ffec27"/>
                <circle cx="0.65" cy="0.55" r="0.05" fill="#ffec27"/>
            </g>
        </g>

        <g id="def-eyes">
            <rect x="0.3" y="0.3" width="0.1" height="0.1" fill="#ff004d" />
            <rect x="0.4" y="0.3" width="0.1" height="0.1" fill="#7e2553" />
            <rect x="0.3" y="0.6" width="0.1" height="0.1" fill="#ff004d" />
            <rect x="0.4" y="0.6" width="0.1" height="0.1" fill="#7e2553" />
        </g>

        <g id="def-wall-horizontal">
            <rect x="0" y="0.3" width="1" height="0.1" fill="gray" />
            <rect x="0" y="0.6" width="1" height="0.1" fill="gray" />
        </g>

        <g id="def-corner-top-left">
            <rect x="0.3" y="0.3" width="0.7" height="0.1" fill="gray" />
            <rect x="0.3" y="0.3" width="0.1" height="0.7" fill="gray" />

            <rect x="0.6" y="0.6" width="0.4" height="0.1" fill="gray" />
            <rect x="0.6" y="0.6" width="0.1" height="0.4" fill="gray" />
        </g>
    </defs>

    <g transform="translate(1, 1)">
        <use x="0" y="0" href="#def-body"/>
        <use x="0" y="0" href="#def-eyes"/>
    </g>

    <g transform="translate(2, 1)">
        <use x="0" y="0" href="#def-body"/>
    </g>

    <g transform="translate(2, 2)">
        <use x="0" y="0" href="#def-body"/>
    </g>

    <g transform="translate(3, 2)">
        <use x="0" y="0" href="#def-body"/>
    </g>
</svg>
